<svg xmlns="http://www.w3.org/2000/svg" version="1.1" xmlns:xlink="http://www.w3.org/1999/xlink" width="1000" height="1000"><metadata><rdf:RDF xmlns:rdf="http://www.w3.org/1999/02/22-rdf-syntax-ns#" xmlns:dc="http://purl.org/dc/elements/1.1/"><rdf:Description><dc:creator>RealFaviconGenerator</dc:creator><dc:source>https://realfavicongenerator.net</dc:source></rdf:Description></rdf:RDF></metadata><g clip-path="url(#SvgjsClipPath1303)"><rect width="1000" height="1000" fill="#f9c96a"></rect><g transform="matrix(4.666666666666667,0,0,4.666666666666667,163.88333333333333,150)"><svg xmlns="http://www.w3.org/2000/svg" viewBox="0 0 144.05 150" width="144.05" height="150"><defs><style>.cls-1{fill:#393939;}</style><clipPath id="SvgjsClipPath1303"><rect width="1000" height="1000" x="0" y="0" rx="250" ry="250"></rect></clipPath></defs><title>k-black</title><g id="Layer_2" data-name="Layer 2"><g id="k"><path class="cls-1" d="M99.21,53.57,60.91,97l39.29,53H67.5A9,9,0,0,1,60,146L30.16,101.19h-.4V150H0V0H20.78a9,9,0,0,1,9,9V91.67L60,56.68a9,9,0,0,1,6.8-3.11Z"></path><path class="cls-1" d="M107.54,131.75a18.52,18.52,0,0,1,1.39-7.15,17.47,17.47,0,0,1,3.87-5.85,17.78,17.78,0,0,1,5.85-3.87,19,19,0,0,1,14.28,0,17.55,17.55,0,0,1,9.73,9.72,19.06,19.06,0,0,1,0,14.29,17.55,17.55,0,0,1-9.73,9.72,19,19,0,0,1-14.28,0,17.57,17.57,0,0,1-9.72-9.72A18.5,18.5,0,0,1,107.54,131.75Z"></path></g></g></svg></g></g></svg>